# xmcd
#
# Track frame offsets: 
#        150
#        22703
#        50178
#        81101
#        107663
#        127793
#        141838
#        159203
#        168794
#        202511
#        244268
#        260455
#
# Disc length: 3717 seconds
#
# Revision: 0
# Processed by: cddbd v1.5.2PL0 Copyright (c) Steve Scherf et al.
# Submitted via: ExactAudioCopy v0.95b3
#
DISCID=8a0e830c
DTITLE=Various Artist - Audiophile reference Test Recordings - Vol. 1 - BLUES
DYEAR=2008
DGENRE=Blues
TTITLE0=01 - John Campbell - Down In The Hole
TTITLE1=02 - Hans Theessink - Mississippi
TTITLE2=03 - Peter Schneider and The Stimulators - St. James Infirmary
TTITLE3=04 - Toscho - Oh Lord
TTITLE4=05 - Sara K - Turned My Upside Down
TTITLE5=06 - John Hiatt - Take It Back
TTITLE6=07 - Allan Taylor - Wheel of Forturne
TTITLE7=08 - Bill Morrissey and Greg Brown - Baby, Please Don´t Go
TTITLE8=09 - Mighty Sam McClain - Other Side of The Tracks
TTITLE9=10 - Steve Ray Vaughan - Tin Pan Alley
TTITLE10=11 - Hans Theessink - Call Me
TTITLE11=12 - John Lee Hooker - Early one morning
EXTD=
EXTT0=
EXTT1=
EXTT2=
EXTT3=
EXTT4=
EXTT5=
EXTT6=
EXTT7=
EXTT8=
EXTT9=
EXTT10=
EXTT11=
PLAYORDER=
